<?xml version="1.0" encoding="UTF-8"?>
<!-- Generated by Pixelmator Pro 3.8 -->
<svg width="256" height="256" viewBox="0 0 256 256" xmlns="http://www.w3.org/2000/svg">
    <style>
        #Rounded-Rectangle { fill: #000000; }
        #J { fill: #ffffff; }
    </style>
    <path id="Rounded-Rectangle" fill="#ffffff" fill-rule="evenodd" stroke="none" d="M 0 128 C 0 154.026733 0 167.0401 2.408324 177.814331 C 10.85852 215.618332 40.381672 245.141479 78.185677 253.591675 C 88.9599 256 101.973267 256 128 256 C 154.026733 256 167.0401 256 177.814331 253.591675 C 215.618332 245.141479 245.141479 215.618332 253.59169 177.814331 C 256 167.0401 256 154.026733 256 128 C 256 101.973267 256 88.9599 253.591675 78.185669 C 245.141479 40.381668 215.618332 10.858521 177.814316 2.40831 C 167.0401 0 154.026733 0 127.999992 0 C 101.973259 0 88.959892 0 78.185669 2.408325 C 40.381664 10.858521 10.858513 40.381668 2.408317 78.185684 C -7e-06 88.9599 -7e-06 101.973267 -7e-06 128 Z"/>
    <path id="J" fill="#000000" fill-rule="evenodd" stroke="none" d="M 63.456078 224.537155 C 63.456078 223.224014 63.620216 221.929123 63.948502 220.652466 C 64.276787 219.375793 64.769211 218.226822 65.425781 217.20549 C 66.082352 216.184143 66.939522 215.345215 67.997337 214.688644 C 69.055145 214.032074 70.313553 213.703796 71.772598 213.703796 C 72.939835 213.703796 73.961151 213.959122 74.836578 214.469788 C 75.712006 214.980453 76.696846 215.308731 77.79113 215.454636 C 77.864082 215.454636 78.119415 215.491119 78.557129 215.564072 C 78.994843 215.637024 79.450783 215.709961 79.924973 215.782928 C 80.399162 215.855865 80.836868 215.928833 81.238106 216.00177 C 81.639343 216.074738 81.91291 216.111206 82.058815 216.111206 C 82.934242 216.475967 83.536095 217.004868 83.86438 217.697906 C 84.192665 218.390961 84.630371 219.102234 85.177513 219.831757 C 85.724655 220.561279 86.545357 221.181366 87.639641 221.692032 C 88.733925 222.202698 90.521233 222.458023 93.00161 222.458023 C 94.095894 222.458023 95.33606 222.002075 96.722153 221.090179 C 98.108253 220.178268 99.512558 218.992813 100.935127 217.533768 C 102.357697 216.074722 103.725533 214.433319 105.038673 212.609512 C 106.351814 210.785706 107.519035 208.961929 108.540367 207.138123 C 109.561699 205.314316 110.382401 203.581726 111.002495 201.940292 C 111.622589 200.298859 111.932632 198.93103 111.932632 197.836746 C 111.932632 196.596558 111.640831 195.629944 111.057213 194.936905 C 110.473595 194.243866 110.181786 193.423157 110.181786 192.474777 C 111.640831 191.234589 112.990433 190.030899 114.230621 188.863663 C 115.251953 187.842331 116.218552 186.784546 117.130463 185.690247 C 118.042358 184.595963 118.644211 183.647598 118.93602 182.845123 C 119.008972 182.699219 119.081924 182.261505 119.154877 181.531982 C 119.227829 180.80246 119.300781 180.036484 119.373734 179.234009 C 119.446686 178.431519 119.519638 177.665543 119.59259 176.93602 C 119.665543 176.206497 119.702011 175.768799 119.702011 175.622894 C 120.504486 172.121185 121.270477 168.491852 122 164.734802 C 122.729523 160.977768 123.604935 157.239014 124.626266 153.518448 C 124.845123 152.788925 125.155167 152.150604 125.556412 151.603455 C 125.957642 151.05632 126.377121 150.509186 126.814835 149.962036 C 127.252548 149.414902 127.617294 148.831299 127.909103 148.211197 C 128.200912 147.591095 128.346817 146.879822 128.346817 146.077362 C 128.346817 145.712585 128.219147 145.384308 127.963821 145.092499 C 127.708481 144.80069 127.434921 144.490646 127.143112 144.162354 C 126.851303 143.834076 126.577728 143.46933 126.322403 143.068085 C 126.067062 142.66684 125.939407 142.174438 125.939407 141.590805 L 130.644806 130.976303 C 130.644806 129.59021 130.061188 128.404755 128.893951 127.419891 C 127.726715 126.435043 126.358887 125.669052 124.790405 125.121918 C 123.221939 124.574768 121.635254 124.173538 120.030304 123.918198 C 118.425354 123.662872 117.185181 123.535202 116.309753 123.535202 L 111.713776 123.535202 C 111.20311 123.899963 110.583023 124.374146 109.8535 124.957764 C 109.123978 125.541382 108.357994 125.833191 107.555519 125.833191 C 106.753044 125.833191 105.822914 125.669052 104.765106 125.340759 C 103.707298 125.012482 102.685982 124.574768 101.701126 124.027634 C 100.71627 123.480484 99.877327 122.805695 99.18428 122.00322 C 98.491234 121.200745 98.144722 120.325333 98.144722 119.376953 C 98.144722 118.428574 98.892471 117.534912 100.387993 116.695969 C 101.883514 115.85701 103.762009 115.036316 106.023529 114.233841 C 108.285049 113.431366 110.78363 112.683609 113.519333 111.99057 C 116.255051 111.297516 118.863052 110.622711 121.34343 109.966141 C 123.823807 109.30957 126.048828 108.707733 128.018539 108.160583 C 129.988251 107.613449 131.301361 107.084549 131.957932 106.573883 C 132.979263 105.917313 133.562881 105.370178 133.708786 104.932465 C 133.854691 104.494751 133.927643 104.020569 133.927643 103.509903 C 133.927643 103.145142 133.945877 102.798615 133.982361 102.470337 C 134.018829 102.142044 134.219452 101.795532 134.584213 101.430771 C 135.094879 100.920105 135.714966 100.336502 136.444489 99.679932 C 137.174011 99.023361 137.903519 98.348557 138.633041 97.655502 C 139.362564 96.962463 140.019119 96.214706 140.602737 95.412231 C 141.186356 94.609756 141.587585 93.770828 141.806442 92.895401 C 142.098251 92.019974 142.481247 90.962173 142.955444 89.721985 C 143.429626 88.481796 143.885574 87.223389 144.323288 85.946716 C 144.761002 84.670059 145.162231 83.393417 145.526993 82.116745 C 145.891754 80.840088 146.110611 79.691101 146.183563 78.669769 L 153.405807 64.553574 C 153.697617 63.678146 153.861755 62.547394 153.898239 61.161301 C 153.934708 59.775208 153.952942 58.571518 153.952942 57.550186 L 153.952942 55.03334 C 153.150467 53.793152 151.928543 52.881271 150.287109 52.297653 C 148.645691 51.714035 147.168427 51.422226 145.855286 51.422226 C 144.615097 51.422226 143.575531 51.586365 142.736588 51.914642 C 141.897629 52.242935 140.894562 52.407074 139.727325 52.407074 C 138.341232 51.239838 137.101059 50.273239 136.006775 49.507233 C 134.912491 48.741241 133.799988 48.139389 132.66922 47.701675 C 131.538452 47.263962 130.316528 46.953918 129.003387 46.77153 C 127.690247 46.589157 126.158264 46.497971 124.40741 46.497971 L 118.170029 47.263962 C 117.951172 47.263962 117.47699 47.136292 116.747467 46.880966 C 116.017944 46.625626 115.616699 46.497971 115.543747 46.497971 L 114.996613 46.497971 C 114.485947 46.497971 113.902344 46.625626 113.245773 46.880966 C 112.589195 47.136292 111.914398 47.428101 111.221352 47.756393 C 110.528305 48.084671 109.853508 48.394714 109.196938 48.686523 C 108.540367 48.978333 107.993233 49.197189 107.555519 49.343094 C 105.585808 50.145569 103.871452 50.656219 102.412407 50.875076 C 100.953362 51.093933 99.73143 51.458694 98.746574 51.96936 C 97.761719 52.480026 97.013969 53.373688 96.503304 54.650345 C 95.992638 55.927017 95.627876 58.024353 95.409019 60.942444 C 95.409019 61.088348 95.390785 61.58078 95.354309 62.419724 C 95.317833 63.258682 95.299591 63.969955 95.299591 64.553574 C 95.299591 65.501953 95.317833 66.340881 95.354309 67.070419 C 95.390785 67.799942 95.445496 68.547684 95.518448 69.31369 C 95.5914 70.079681 95.719063 70.936859 95.901443 71.885239 C 96.083824 72.833618 96.357391 73.964355 96.722153 75.277512 C 96.94101 75.423416 97.196342 75.642258 97.488152 75.934067 C 97.779961 76.225876 97.998817 76.444733 98.144722 76.590637 C 98.290627 76.590637 98.637138 76.900681 99.18428 77.520782 C 99.731422 78.140869 100.077942 78.487381 100.223846 78.560333 L 101.099274 80.748901 C 101.464035 81.697281 102.047646 82.536224 102.850121 83.265747 C 103.652596 83.99527 104.455055 84.724777 105.25753 85.4543 C 106.060005 86.183823 106.771278 86.968048 107.391373 87.806992 C 108.011467 88.64595 108.32151 89.649033 108.32151 90.816269 C 108.32151 91.18103 108.2668 91.527542 108.157372 91.855835 C 108.047943 92.184113 107.591995 92.53064 106.78952 92.895401 L 104.382111 92.895401 C 102.850113 92.895401 101.354614 92.366501 99.895569 91.308685 C 98.436516 90.250885 97.032211 88.901291 95.682594 87.259857 C 94.332977 85.618439 93.092804 83.758179 91.962044 81.679031 C 90.831284 79.599899 89.846443 77.502548 89.007492 75.386932 C 88.168541 73.271317 87.511978 71.283401 87.037788 69.423111 C 86.563599 67.56282 86.326508 65.976135 86.326508 64.662994 C 86.326508 58.389099 87.603149 52.844803 90.156479 48.029953 C 92.709816 43.215103 96.357376 38.728607 101.099274 34.570328 C 101.31813 34.424423 101.810547 34.169098 102.576546 33.804337 C 103.342545 33.439575 103.798492 33.220718 103.944397 33.147766 C 105.622299 32.491196 107.13604 31.907578 108.485657 31.396912 C 109.835274 30.886246 111.166634 30.430313 112.479774 30.029068 C 113.792908 29.627838 115.178986 29.281311 116.638031 28.989502 C 118.097076 28.697693 119.811432 28.369415 121.781143 28.004654 C 123.386093 28.588272 125.319305 28.880081 127.580826 28.880081 C 128.310349 28.880081 129.07634 28.861832 129.878815 28.825363 C 130.68129 28.788879 131.374313 28.697693 131.957932 28.551788 C 132.030884 28.843597 132.450363 29.281311 133.216354 29.864929 C 133.982361 30.448547 134.438309 30.813309 134.584213 30.959213 L 138.633041 30.302643 C 140.237991 30.302643 141.970581 30.557968 143.830872 31.068634 C 145.691147 31.5793 147.606125 32.162903 149.575836 32.819473 C 151.545547 33.476044 153.496979 34.059662 155.430222 34.570328 C 157.363464 35.080994 159.205475 35.336319 160.956329 35.336319 C 161.102234 35.336319 161.394043 35.336319 161.831757 35.336319 C 162.26947 35.336319 162.488327 35.29985 162.488327 35.226898 C 162.707184 35.153946 163.144882 34.971558 163.801453 34.679749 C 164.458023 34.387939 165.187546 34.041428 165.990021 33.640182 C 166.792496 33.238953 167.540237 32.855957 168.233292 32.491196 C 168.926331 32.126434 169.455231 31.834625 169.819992 31.615768 C 170.111801 30.156723 170.695404 28.715942 171.570831 27.293365 C 172.446259 25.870804 173.504059 24.612396 174.744247 23.518112 C 175.984436 22.423828 177.352264 21.530167 178.847794 20.837128 C 180.343307 20.144073 181.820572 19.797562 183.279617 19.797562 C 184.95752 19.797562 186.343597 19.979935 187.437881 20.344696 C 188.532166 20.709457 189.918243 21.18364 191.596146 21.767258 C 192.325668 22.132019 192.909271 22.660919 193.346985 23.353973 C 193.784698 24.047012 194.094742 24.794769 194.27713 25.597244 C 194.459503 26.399719 194.568939 27.220413 194.605408 28.059372 C 194.641891 28.898315 194.660126 29.646072 194.660126 30.302643 C 194.660126 33.877304 193.912369 36.886536 192.416855 39.330444 C 190.921326 41.774338 188.751038 44.163498 185.905884 46.497971 C 185.759979 46.643875 185.541138 46.808014 185.249329 46.990387 C 184.95752 47.172775 184.738663 47.263962 184.592758 47.263962 C 184.446854 47.263962 184.045624 47.282196 183.389053 47.31868 C 182.732483 47.355148 182.039444 47.409866 181.309921 47.482819 C 180.580399 47.555771 179.88736 47.646957 179.230789 47.756393 C 178.574219 47.865814 178.172989 47.957001 178.027084 48.029953 C 177.954132 48.029953 177.662323 48.212341 177.151657 48.577103 C 176.640991 48.941864 176.057388 49.379562 175.400818 49.890228 C 174.744247 50.400894 174.051208 50.948029 173.321686 51.531647 C 172.592163 52.115265 172.008545 52.589447 171.570831 52.954208 L 170.257706 54.267349 L 170.257706 57.878464 C 170.257706 58.024368 170.057083 58.279709 169.655853 58.64447 C 169.254608 59.009232 169.054001 59.337509 169.054001 59.629318 C 168.032669 61.161316 167.248444 62.729767 166.701294 64.334717 C 166.15416 65.939667 165.698212 67.58107 165.33345 69.258972 C 164.968689 70.936874 164.640411 72.687698 164.348602 74.511505 C 164.056793 76.335312 163.61908 78.23204 163.035461 80.201752 C 162.816605 81.660812 162.470093 83.138062 161.995895 84.633591 C 161.521713 86.129105 161.047516 87.624603 160.573334 89.120132 C 160.099136 90.615662 159.697906 92.129395 159.369629 93.661392 C 159.041336 95.19339 158.877197 96.761841 158.877197 98.366791 C 158.877197 98.731552 159.041336 99.096313 159.369629 99.461075 C 159.697906 99.825836 160.099136 100.154114 160.573334 100.445923 C 161.047516 100.737732 161.521713 100.974823 161.995895 101.157196 C 162.470093 101.339584 162.816605 101.430771 163.035461 101.430771 L 176.27623 101.430771 C 176.713943 101.430771 177.188126 101.613144 177.698792 101.977905 C 178.209457 102.342667 178.683655 102.78038 179.121368 103.291046 C 179.559082 103.801712 179.923828 104.367081 180.215637 104.987183 C 180.507446 105.607269 180.653351 106.172638 180.653351 106.683304 C 180.653351 108.79892 179.559082 110.65918 177.370514 112.26413 C 177.005753 112.410034 176.367432 112.701843 175.455521 113.139557 C 174.543625 113.577271 173.558777 114.069687 172.500977 114.616837 C 171.443161 115.163971 170.440094 115.674637 169.491699 116.148819 C 168.54332 116.623016 167.850296 116.969528 167.412582 117.188385 C 165.880585 117.99086 164.147995 118.465042 162.214752 118.610947 C 160.281509 118.756851 158.658356 118.829803 157.345215 118.829803 C 157.272263 118.975708 157.07164 119.194565 156.743362 119.486374 C 156.41507 119.778183 156.050308 120.088226 155.649078 120.416504 C 155.247833 120.744797 154.883087 121.073074 154.554794 121.401367 C 154.226517 121.729645 154.025894 122.00322 153.952942 122.222076 C 153.661133 122.586838 153.424042 122.988068 153.241669 123.425781 C 153.05928 123.863495 152.968094 124.228241 152.968094 124.52005 L 153.405807 127.802887 C 153.113998 127.875839 152.785721 128.240601 152.420959 128.897171 C 152.202103 129.18898 152.019714 129.553741 151.87381 129.991455 C 150.706573 132.982498 149.758209 136.046448 149.028687 139.183395 C 148.299164 142.320343 147.3508 145.457245 146.183563 148.594193 C 145.381088 150.199142 144.724533 151.895264 144.213867 153.682587 C 143.703201 155.469925 143.156067 157.129562 142.572449 158.66156 C 142.572449 158.66156 142.481262 158.843933 142.298874 159.20871 C 142.116501 159.573456 141.87941 159.956451 141.587601 160.357697 C 141.295792 160.758942 141.022217 161.123688 140.766891 161.451965 C 140.511551 161.780258 140.310928 161.980865 140.165024 162.053833 C 140.165024 162.12677 140.128555 162.236206 140.055603 162.382111 C 139.982651 162.528015 139.909698 162.67392 139.836746 162.819824 C 139.690842 163.038681 139.581421 163.257538 139.508469 163.476379 C 139.508469 163.768188 139.417267 164.388275 139.234894 165.33667 C 139.052505 166.285034 138.851898 167.269882 138.633041 168.291214 C 138.414185 169.312546 138.177094 170.279144 137.921753 171.191055 C 137.666428 172.102966 137.502289 172.704803 137.429337 172.996613 C 137.21048 173.726135 136.900436 174.419174 136.499191 175.075745 C 136.097961 175.732315 135.714966 176.388885 135.350204 177.045441 C 134.985443 177.702026 134.657166 178.358582 134.365356 179.015152 C 134.073547 179.671722 133.927643 180.364746 133.927643 181.094269 C 133.927643 181.459045 133.927643 181.750854 133.927643 181.969696 C 133.927643 182.188568 133.964111 182.480362 134.037064 182.845123 L 129.550522 191.927643 C 127.216049 197.61792 124.571564 202.706268 121.617004 207.192841 C 118.66243 211.679398 115.179016 216.184143 111.166641 220.707184 C 110.218262 221.655548 109.342842 222.822784 108.540367 224.208862 C 107.737892 225.594971 106.607147 226.762177 105.148102 227.710571 C 104.78334 228.075317 104.163254 228.585983 103.287827 229.242554 C 102.412399 229.899124 101.518753 230.555679 100.60685 231.21225 C 99.694946 231.86882 98.819527 232.470673 97.980576 233.017822 C 97.141624 233.564957 96.612732 233.875 96.393875 233.947952 C 96.247971 234.093857 95.828499 234.257996 95.135452 234.440384 C 94.442406 234.622757 94.05941 234.713943 93.986458 234.713943 C 93.767601 234.859848 93.311653 235.078705 92.618607 235.370514 C 91.92556 235.662323 91.433144 235.88118 91.141335 236.027084 L 86.326508 236.245941 C 85.378128 236.245941 84.320335 236.28241 83.153099 236.355362 C 81.985863 236.428314 80.672737 236.464798 79.213692 236.464798 C 77.098076 236.464798 75.146629 236.300659 73.359299 235.972366 C 71.571968 235.644089 70.167656 234.969284 69.146324 233.947952 C 68.708611 233.583191 68.161476 232.963104 67.504906 232.087677 C 66.848335 231.21225 66.228249 230.28212 65.64463 229.297272 C 65.061012 228.312408 64.550354 227.382278 64.11264 226.506851 C 63.674927 225.631424 63.456078 224.974869 63.456078 224.537155 Z"/>
</svg>
